<svg width="657" height="116" viewBox="0 0 657 116" fill="none" xmlns="http://www.w3.org/2000/svg">
<g filter="url(#filter0_d_18_47615)">
<path d="M30.8 72.75L4.4 46.35L30.8 19.95L39.05 28.145L20.24 46.35L39.05 64.555L30.8 72.75ZM86.8665 1.8H100.176L79.0565 81H65.7465L86.8665 1.8ZM626.352 72.75L618.157 64.555L636.912 46.35L618.157 28.145L626.352 19.95L652.807 46.35L626.352 72.75Z" fill="url(#paint0_linear_18_47615)"/>
<path d="M138.249 82.65C132.786 82.65 128.019 81.275 123.949 78.525C119.879 75.775 116.726 72.035 114.489 67.305C112.253 62.575 111.134 57.24 111.134 51.3C111.134 45.2867 112.253 39.9333 114.489 35.24C116.763 30.51 119.971 26.7883 124.114 24.075C128.258 21.325 133.134 19.95 138.744 19.95C144.391 19.95 149.121 21.325 152.934 24.075C156.784 26.7883 159.699 30.51 161.679 35.24C163.659 39.97 164.649 45.3233 164.649 51.3C164.649 57.2033 163.659 62.5383 161.679 67.305C159.699 72.035 156.748 75.775 152.824 78.525C148.901 81.275 144.043 82.65 138.249 82.65ZM140.284 70.77C143.841 70.77 146.701 69.9633 148.864 68.35C151.064 66.7 152.659 64.4083 153.649 61.475C154.676 58.5417 155.189 55.15 155.189 51.3C155.189 47.4133 154.676 44.0217 153.649 41.125C152.659 38.1917 151.101 35.9183 148.974 34.305C146.848 32.655 144.098 31.83 140.724 31.83C137.168 31.83 134.234 32.71 131.924 34.47C129.614 36.1933 127.909 38.54 126.809 41.51C125.709 44.4433 125.159 47.7067 125.159 51.3C125.159 54.93 125.691 58.23 126.754 61.2C127.854 64.1333 129.523 66.4617 131.759 68.185C133.996 69.9083 136.838 70.77 140.284 70.77ZM155.189 81V39.31H153.539V1.8H166.904V81H155.189ZM209.33 82.65C203.317 82.65 198.037 81.3483 193.49 78.745C188.943 76.1417 185.387 72.53 182.82 67.91C180.29 63.29 179.025 57.9733 179.025 51.96C179.025 45.47 180.272 39.8417 182.765 35.075C185.258 30.2717 188.723 26.55 193.16 23.91C197.597 21.27 202.73 19.95 208.56 19.95C214.72 19.95 219.945 21.3983 224.235 24.295C228.562 27.155 231.77 31.2067 233.86 36.45C235.95 41.6933 236.738 47.8717 236.225 54.985H223.08V50.145C223.043 43.6917 221.907 38.98 219.67 36.01C217.433 33.04 213.913 31.555 209.11 31.555C203.683 31.555 199.65 33.2417 197.01 36.615C194.37 39.9517 193.05 44.8467 193.05 51.3C193.05 57.3133 194.37 61.97 197.01 65.27C199.65 68.57 203.5 70.22 208.56 70.22C211.823 70.22 214.628 69.505 216.975 68.075C219.358 66.6083 221.192 64.5 222.475 61.75L235.565 65.71C233.292 71.0633 229.772 75.225 225.005 78.195C220.275 81.165 215.05 82.65 209.33 82.65ZM188.87 54.985V44.975H229.735V54.985H188.87ZM262.408 81L240.848 21.6H254.103L269.063 64.665L283.968 21.6H297.278L275.718 81H262.408ZM332.006 82.65C325.992 82.65 320.712 81.3483 316.166 78.745C311.619 76.1417 308.062 72.53 305.496 67.91C302.966 63.29 301.701 57.9733 301.701 51.96C301.701 45.47 302.947 39.8417 305.441 35.075C307.934 30.2717 311.399 26.55 315.836 23.91C320.272 21.27 325.406 19.95 331.236 19.95C337.396 19.95 342.621 21.3983 346.911 24.295C351.237 27.155 354.446 31.2067 356.536 36.45C358.626 41.6933 359.414 47.8717 358.901 54.985H345.756V50.145C345.719 43.6917 344.582 38.98 342.346 36.01C340.109 33.04 336.589 31.555 331.786 31.555C326.359 31.555 322.326 33.2417 319.686 36.615C317.046 39.9517 315.726 44.8467 315.726 51.3C315.726 57.3133 317.046 61.97 319.686 65.27C322.326 68.57 326.176 70.22 331.236 70.22C334.499 70.22 337.304 69.505 339.651 68.075C342.034 66.6083 343.867 64.5 345.151 61.75L358.241 65.71C355.967 71.0633 352.447 75.225 347.681 78.195C342.951 81.165 337.726 82.65 332.006 82.65ZM311.546 54.985V44.975H352.411V54.985H311.546ZM372.273 81V0.149998H385.528V81H372.273ZM428.238 82.65C422.298 82.65 417.109 81.3117 412.673 78.635C408.236 75.9583 404.789 72.2733 402.333 67.58C399.913 62.85 398.703 57.4233 398.703 51.3C398.703 45.0667 399.949 39.6033 402.443 34.91C404.936 30.2167 408.401 26.55 412.838 23.91C417.274 21.27 422.408 19.95 428.238 19.95C434.214 19.95 439.421 21.2883 443.858 23.965C448.294 26.6417 451.741 30.345 454.198 35.075C456.654 39.7683 457.883 45.1767 457.883 51.3C457.883 57.46 456.636 62.905 454.143 67.635C451.686 72.3283 448.239 76.0133 443.803 78.69C439.366 81.33 434.178 82.65 428.238 82.65ZM428.238 70.22C433.518 70.22 437.441 68.46 440.008 64.94C442.574 61.42 443.858 56.8733 443.858 51.3C443.858 45.5433 442.556 40.96 439.953 37.55C437.349 34.1033 433.444 32.38 428.238 32.38C424.681 32.38 421.748 33.1867 419.438 34.8C417.164 36.3767 415.478 38.595 414.378 41.455C413.278 44.2783 412.728 47.56 412.728 51.3C412.728 57.0567 414.029 61.6583 416.633 65.105C419.273 68.515 423.141 70.22 428.238 70.22ZM496.236 82.65C490.296 82.65 485.107 81.3117 480.671 78.635C476.234 75.9583 472.787 72.2733 470.331 67.58C467.911 62.85 466.701 57.4233 466.701 51.3C466.701 45.0667 467.947 39.6033 470.441 34.91C472.934 30.2167 476.399 26.55 480.836 23.91C485.272 21.27 490.406 19.95 496.236 19.95C502.212 19.95 507.419 21.2883 511.856 23.965C516.292 26.6417 519.739 30.345 522.196 35.075C524.652 39.7683 525.881 45.1767 525.881 51.3C525.881 57.46 524.634 62.905 522.141 67.635C519.684 72.3283 516.237 76.0133 511.801 78.69C507.364 81.33 502.176 82.65 496.236 82.65ZM496.236 70.22C501.516 70.22 505.439 68.46 508.006 64.94C510.572 61.42 511.856 56.8733 511.856 51.3C511.856 45.5433 510.554 40.96 507.951 37.55C505.347 34.1033 501.442 32.38 496.236 32.38C492.679 32.38 489.746 33.1867 487.436 34.8C485.162 36.3767 483.476 38.595 482.376 41.455C481.276 44.2783 480.726 47.56 480.726 51.3C480.726 57.0567 482.027 61.6583 484.631 65.105C487.271 68.515 491.139 70.22 496.236 70.22ZM566.544 82.65C560.75 82.65 555.892 81.275 551.969 78.525C548.045 75.775 545.094 72.035 543.114 67.305C541.134 62.5383 540.144 57.2033 540.144 51.3C540.144 45.3233 541.134 39.97 543.114 35.24C545.094 30.51 547.99 26.7883 551.804 24.075C555.654 21.325 560.402 19.95 566.049 19.95C571.659 19.95 576.517 21.325 580.624 24.075C584.767 26.7883 587.975 30.51 590.249 35.24C592.522 39.9333 593.659 45.2867 593.659 51.3C593.659 57.24 592.54 62.575 590.304 67.305C588.067 72.035 584.914 75.775 580.844 78.525C576.774 81.275 572.007 82.65 566.544 82.65ZM537.889 107.4V21.6H549.604V63.29H551.254V107.4H537.889ZM564.509 70.77C567.955 70.77 570.797 69.9083 573.034 68.185C575.27 66.4617 576.92 64.1333 577.984 61.2C579.084 58.23 579.634 54.93 579.634 51.3C579.634 47.7067 579.084 44.4433 577.984 41.51C576.884 38.54 575.179 36.1933 572.869 34.47C570.559 32.71 567.625 31.83 564.069 31.83C560.695 31.83 557.945 32.655 555.819 34.305C553.692 35.9183 552.115 38.1917 551.089 41.125C550.099 44.0217 549.604 47.4133 549.604 51.3C549.604 55.15 550.099 58.5417 551.089 61.475C552.115 64.4083 553.71 66.7 555.874 68.35C558.074 69.9633 560.952 70.77 564.509 70.77Z" fill="#F5F5F5"/>
</g>
<defs>
<filter id="filter0_d_18_47615" x="0.399902" y="0.149902" width="656.407" height="115.25" filterUnits="userSpaceOnUse" color-interpolation-filters="sRGB">
<feFlood flood-opacity="0" result="BackgroundImageFix"/>
<feColorMatrix in="SourceAlpha" type="matrix" values="0 0 0 0 0 0 0 0 0 0 0 0 0 0 0 0 0 0 127 0" result="hardAlpha"/>
<feOffset dy="4"/>
<feGaussianBlur stdDeviation="2"/>
<feComposite in2="hardAlpha" operator="out"/>
<feColorMatrix type="matrix" values="0 0 0 0 0 0 0 0 0 0 0 0 0 0 0 0 0 0 0.25 0"/>
<feBlend mode="normal" in2="BackgroundImageFix" result="effect1_dropShadow_18_47615"/>
<feBlend mode="normal" in="SourceGraphic" in2="effect1_dropShadow_18_47615" result="shape"/>
</filter>
<linearGradient id="paint0_linear_18_47615" x1="-11" y1="39" x2="669" y2="39" gradientUnits="userSpaceOnUse">
<stop stop-color="#E2FF24"/>
<stop offset="1" stop-color="#24FE41"/>
</linearGradient>
</defs>
</svg>
